<?xml version="1.0" encoding="utf-8"?>
<!-- Generator: Adobe Illustrator 22.1.0, SVG Export Plug-In . SVG Version: 6.00 Build 0)  -->
<svg version="1.1" id="图层_1" xmlns="http://www.w3.org/2000/svg" xmlns:xlink="http://www.w3.org/1999/xlink" x="0px" y="0px"
	 viewBox="0 0 49 45.8" style="enable-background:new 0 0 49 45.8;" xml:space="preserve">
<path id="display" d="M41.3,6.1H7.7c-0.8,0-1.5,0.7-1.5,1.5c0,0,0,0,0,0V29c0,0.8,0.7,1.5,1.5,1.5h33.7c0.8,0,1.5-0.7,1.5-1.5V7.6
	C42.9,6.8,42.2,6.1,41.3,6.1C41.3,6.1,41.3,6.1,41.3,6.1z M41.3,29H7.7V7.6h33.7V29z M44.4,0H4.6C2.1,0,0,2,0,4.6c0,0,0,0,0,0v30.6
	c0,2.5,2.1,4.6,4.6,4.6h15.3v1.9l-9.6,1.2c-0.8,0.2-1.3,1-1.1,1.8c0.2,0.7,0.8,1.2,1.5,1.2h27.6c0.8,0,1.5-0.7,1.5-1.5
	c0-0.7-0.5-1.3-1.2-1.5l-9.6-1.2v-1.9h15.3c2.5,0,4.6-2.1,4.6-4.6V4.6C49,2.1,46.9,0,44.4,0C44.4,0,44.4,0,44.4,0z M45.9,35.2
	c0,0.8-0.7,1.5-1.5,1.5c0,0,0,0,0,0H4.6c-0.8,0-1.5-0.7-1.5-1.5V4.6c0-0.8,0.7-1.5,1.5-1.5c0,0,0,0,0,0h39.8c0.8,0,1.5,0.7,1.5,1.5
	c0,0,0,0,0,0V35.2z"/>
</svg>
